<svg xmlns="http://www.w3.org/2000/svg" xmlns:xlink="http://www.w3.org/1999/xlink" viewBox="0 0 363.61 390.56"><defs><style>.cls-1{fill:none;}.cls-2{isolation:isolate;}.cls-3{fill:#cfe4e6;}.cls-4{clip-path:url(#clip-path);}.cls-5{mix-blend-mode:color-burn;fill:url(#linear-gradient);}.cls-6{fill:url(#linear-gradient-2);}.cls-7{fill:url(#linear-gradient-3);}.cls-8{fill:url(#linear-gradient-4);}.cls-9{fill:url(#linear-gradient-5);}.cls-10{fill:url(#linear-gradient-6);}.cls-11{fill:url(#linear-gradient-7);}</style><clipPath id="clip-path" transform="translate(3.61 0)"><rect class="cls-1" x="-14.82" y="0.07" width="360" height="288"/></clipPath><linearGradient id="linear-gradient" x1="119.5" y1="187.43" x2="119.5" y2="121.99" gradientUnits="userSpaceOnUse"><stop offset="0" stop-color="gray"/><stop offset="0.21" stop-color="#838484"/><stop offset="0.4" stop-color="#8c8f8f"/><stop offset="0.59" stop-color="#9ba2a2"/><stop offset="0.78" stop-color="#afbcbd"/><stop offset="0.97" stop-color="#cadddf"/><stop offset="1" stop-color="#cfe4e6"/></linearGradient><linearGradient id="linear-gradient-2" x1="119.39" y1="174.2" x2="119.39" y2="120.78" gradientUnits="userSpaceOnUse"><stop offset="0" stop-color="#262626"/><stop offset="0.15" stop-color="#292a2a"/><stop offset="0.3" stop-color="#333535"/><stop offset="0.44" stop-color="#444848"/><stop offset="0.58" stop-color="#5c6263"/><stop offset="0.72" stop-color="#7a8586"/><stop offset="0.85" stop-color="#a0afb0"/><stop offset="0.99" stop-color="#cbdfe1"/><stop offset="1" stop-color="#cfe4e6"/></linearGradient><linearGradient id="linear-gradient-3" x1="139.68" y1="181.46" x2="139.68" y2="113.46" gradientUnits="userSpaceOnUse"><stop offset="0" stop-color="#fff"/><stop offset="0.3" stop-color="#fbfdfd"/><stop offset="0.58" stop-color="#f0f6f7"/><stop offset="0.85" stop-color="#ddeced"/><stop offset="1" stop-color="#cfe4e6"/></linearGradient><linearGradient id="linear-gradient-4" x1="54.13" y1="181.46" x2="54.13" y2="113.46" xlink:href="#linear-gradient-3"/><linearGradient id="linear-gradient-5" x1="94.54" y1="181.46" x2="94.54" y2="113.46" xlink:href="#linear-gradient-3"/><linearGradient id="linear-gradient-6" x1="100.87" y1="181.46" x2="100.87" y2="113.46" xlink:href="#linear-gradient-3"/><linearGradient id="linear-gradient-7" x1="89.25" y1="181.46" x2="89.25" y2="113.46" xlink:href="#linear-gradient-3"/></defs><title>20713 [Converted]</title><g class="cls-2"><g id="Layer_1" data-name="Layer 1"><rect class="cls-3" x="3.61" width="360" height="288"/><g class="cls-4"><path class="cls-5" d="M7.1,138.25c13.41-13.41,67.23-22.46,69.61-22.81l39.58,2.19-20.14-1.11,20.16,1.1c-.56.1-66.32,11.66-36.81,32.28,14.35,10,32.8,20.17,52.33,30.92,44.31,24.38,91.35,33.54,109.59,69.57,1.71,3.38,1.11,34.43,1,42.68-.53,26.65-17.43,58.41-60.11,97.49L-3.61,330.79c125.18-62.48,95.21-96.56,43.89-145.41C28,173.67,16.47,162.71,9.17,151.87a12.28,12.28,0,0,1-2.23-5.76C6.69,143.43,6.79,138.56,7.1,138.25Z" transform="translate(3.61 0)"/><path class="cls-6" d="M9.42,134.44c11.76-12.15,64.91-18.71,67.29-19l39.58,1.79-20.14-.91,20.16.9c-.56.08-66.32,9.52-36.81,26.35,14.35,8.18,32.8,16.47,52.33,25.24,80.6,36.2,174.58,78.41,50.43,171.2L-3.61,291.23c125.18-51,95.21-78.82,43.89-118.7C28,163,16.47,154,9.17,145.18,5.81,141.1,6.42,137.53,9.42,134.44Z" transform="translate(3.61 0)"/><path class="cls-7" d="M61.07,134.53c1.15-5.49,11.55-9.63,21-12.3a248.89,248.89,0,0,1,29.23-5.94l1.34.06c-.6.08-71.44,9.88-42.07,28,13.78,8.49,31.74,17.09,50.84,26.23C199.65,208,272.68,243,161.77,314l-6.65-1.61c111.44-69.73,40-104.44-36.71-141.73-18.87-9.17-36.61-17.79-50.16-26.31C62.34,140.67,60.47,137.38,61.07,134.53Z" transform="translate(3.61 0)"/><path class="cls-8" d="M17.87,134.53c4.62-5.49,17.64-9.63,28.79-12.3,15.71-3.77,32.83-5.92,33-5.94l1.3.06c-.65.08-77.7,9.88-59.8,28,8.4,8.49,20.91,17.09,34.22,26.23C109.89,208,160.78,243,4.85,314l-5.63-1.61C154.84,242.7,105.4,208,52.29,170.7,39.23,161.53,27,152.91,18.8,144.39,15.24,140.67,15.46,137.38,17.87,134.53Z" transform="translate(3.61 0)"/><path class="cls-9" d="M92.27,116.74c2-.29,3.2-.45,3.22-.45l1.32.06s-1.21.16-3.18.45Z" transform="translate(3.61 0)"/><path class="cls-10" d="M39.4,134.51h2.07a5.54,5.54,0,0,0-.57,2H38.77A5.71,5.71,0,0,1,39.4,134.51Zm1.35-1.87a15.38,15.38,0,0,1,2-1.77l1.95,0a14,14,0,0,0-1.93,1.76Zm-1.81,5.94,2.19,0a8.42,8.42,0,0,0,1.13,2.21l-2.26,0A7.73,7.73,0,0,1,38.94,138.58Zm6.37-9.38c.93-.53,2-1.06,3.08-1.58l1.83,0c-1.1.51-2.11,1-3,1.57Zm-3.25,13.94,2.31,0c.45.41,1,.83,1.5,1.25l1.62,1.22-2.38.05c-.54-.41-1.07-.81-1.58-1.22S42.5,143.55,42.06,143.14Zm9.86-17c1.23-.48,2.56-.95,3.95-1.41l1.71,0c-1.37.46-2.68.94-3.89,1.41Zm-3.23,22.11,2.45-.07c1.34.93,2.71,1.86,4.13,2.8l-2.52.07Q50.65,149.63,48.69,148.24Zm11.48-24.86c1.47-.43,3-.85,4.63-1.27l1.61,0c-1.58.41-3.12.83-4.58,1.26ZM57.31,154l2.61-.08q2.53,1.59,5.19,3.2l-2.69.08C60.68,156.16,59,155.09,57.31,154Zm12.42-33.11c1.68-.39,3.43-.77,5.22-1.14l1.51,0c-1.77.37-3.5.75-5.16,1.13Zm-1.62,39.75,2.78-.09c2.09,1.22,4.23,2.45,6.39,3.69l-2.88.11Q71.2,162.52,68.11,160.67Zm13.2,7.71,3-.12L92,172.59l-3.1.13Zm-.88-49.67c1.89-.35,3.82-.69,5.76-1l1.41,0c-1.91.32-3.83.66-5.71,1ZM97,177.45l3.24-.14c3,1.71,6,3.43,8.88,5.16l-3.38.15Q101.46,180,97,177.45ZM124,284.26a142.55,142.55,0,0,0,19.14-16.39l5.95.67a138.59,138.59,0,0,1-19,16.72Zm-9-95.95,3.55-.15c3.5,2.19,6.68,4.25,9.69,6.31l-3.75.15C121.53,192.56,118.42,190.5,115,188.31Zm38.89,64.88a33.71,33.71,0,0,0,3.76-13.06l5.32.19a33.44,33.44,0,0,1-3.42,13.27ZM134,201.65l4-.14a120.34,120.34,0,0,1,9.24,7.92l-4.26.11A111.93,111.93,0,0,0,134,201.65Zm16.68,16.82,4.58-.06A42.65,42.65,0,0,1,161,228.65L156,228.6A41,41,0,0,0,150.63,218.47Z" transform="translate(3.61 0)"/><path class="cls-11" d="M77.17,312.43c6.47-3.37,12.51-6.67,18-9.81l6.16,1.39c-5.49,3.21-11.55,6.58-18,10Z" transform="translate(3.61 0)"/></g></g></g></svg>